<?xml version="1.0" encoding="iso-8859-1"?>
<!-- Generator: Adobe Illustrator 19.0.0, SVG Export Plug-In . SVG Version: 6.00 Build 0)  -->
<svg xmlns="http://www.w3.org/2000/svg" xmlns:xlink="http://www.w3.org/1999/xlink" version="1.1" id="Capa_1" x="0px" y="0px" viewBox="0 0 452.986 452.986" style="enable-background:new 0 0 452.986 452.986;" xml:space="preserve" width="512px" height="512px">
<g>
	<g>
		<g>
			<path d="M404.344,0H48.642C21.894,0,0,21.873,0,48.664v355.681c0,26.726,21.894,48.642,48.642,48.642     h355.702c26.726,0,48.642-21.916,48.642-48.642V48.664C452.986,21.873,431.07,0,404.344,0z M148.429,33.629h156.043v40.337     H148.429V33.629z M410.902,406.372H42.041v-293.88h368.86V406.372z" fill="#181d30"/>
			<rect x="79.273" y="246.23" width="48.642" height="48.664" fill="#181d30"/>
			<rect x="79.273" y="323.26" width="48.642" height="48.642" fill="#181d30"/>
			<rect x="160.853" y="169.223" width="48.621" height="48.642" fill="#181d30"/>
			<rect x="160.853" y="246.23" width="48.621" height="48.664" fill="#181d30"/>
			<rect x="160.853" y="323.26" width="48.621" height="48.642" fill="#181d30"/>
			<rect x="242.369" y="169.223" width="48.664" height="48.642" fill="#181d30"/>
			<rect x="242.369" y="246.23" width="48.664" height="48.664" fill="#181d30"/>
			<rect x="242.369" y="323.26" width="48.664" height="48.642" fill="#181d30"/>
			<rect x="323.907" y="169.223" width="48.664" height="48.642" fill="#181d30"/>
			<rect x="323.907" y="246.23" width="48.664" height="48.664" fill="#181d30"/>
		</g>
	</g>
	<g>
	</g>
	<g>
	</g>
	<g>
	</g>
	<g>
	</g>
	<g>
	</g>
	<g>
	</g>
	<g>
	</g>
	<g>
	</g>
	<g>
	</g>
	<g>
	</g>
	<g>
	</g>
	<g>
	</g>
	<g>
	</g>
	<g>
	</g>
	<g>
	</g>
</g>
<g>
</g>
<g>
</g>
<g>
</g>
<g>
</g>
<g>
</g>
<g>
</g>
<g>
</g>
<g>
</g>
<g>
</g>
<g>
</g>
<g>
</g>
<g>
</g>
<g>
</g>
<g>
</g>
<g>
</g>
</svg>
