<?xml version="1.0" encoding="iso-8859-1"?>
<!-- Generator: Adobe Illustrator 18.0.0, SVG Export Plug-In . SVG Version: 6.00 Build 0)  -->
<!DOCTYPE svg PUBLIC "-//W3C//DTD SVG 1.1//EN" "http://www.w3.org/Graphics/SVG/1.1/DTD/svg11.dtd">
<svg xmlns="http://www.w3.org/2000/svg" xmlns:xlink="http://www.w3.org/1999/xlink" version="1.1" id="Capa_1" x="0px" y="0px" viewBox="0 0 410.371 410.371" style="enable-background:new 0 0 410.371 410.371;" xml:space="preserve" width="512px" height="512px">
<g>
	<g>
		<path d="M194.269,314.086H24.775c-2.485,0-4.5-2.015-4.5-4.5V278.7c0-2.485,2.015-4.5,4.5-4.5h169.494c2.485,0,4.5,2.015,4.5,4.5    v30.886C198.769,312.071,196.754,314.086,194.269,314.086z M29.275,305.086h160.494V283.2H29.275V305.086z" fill="#181d30"/>
	</g>
	<g>
		<path d="M410.371,329.052l-0.011-111.985c0.072-1.99,0.333-21.762-16.331-31.628v-82.195c0-2.485-2.015-4.5-4.5-4.5    c-20.159,0-36.56-13.468-36.56-30.021c0-5.903-4.737-14.544-45.696-21.409c-27.283-4.573-63.506-7.091-101.996-7.091    c-0.031,0-0.06,0.009-0.091,0.009c-0.031,0-0.06-0.009-0.091-0.009c-38.49,0-74.713,2.518-101.996,7.091    c-40.959,6.865-45.696,15.506-45.696,21.409c0,16.554-16.4,30.021-36.56,30.021c-2.485,0-4.5,2.015-4.5,4.5v82.195    c-16.664,9.866-16.402,29.638-16.33,31.628L0.001,329.052c0,1.563,0.797,2.936,2.006,3.743c-1.273,2.285-2.006,4.91-2.006,7.708    c0,6.371,5.065,11.347,8.078,13.744v11.401c0,2.485,2.015,4.5,4.5,4.5h21.026c2.485,0,4.5-2.015,4.5-4.5v-11.402    c3.013-2.397,8.077-7.373,8.077-13.744c0-2.497-0.596-4.849-1.626-6.951h321.251c-1.028,2.103-1.617,4.456-1.617,6.951    c0,6.371,5.064,11.347,8.077,13.744v11.402c0,2.485,2.015,4.5,4.5,4.5h21.026c2.485,0,4.5-2.015,4.5-4.5v-11.401    c3.014-2.397,8.078-7.374,8.078-13.744c0-2.798-0.732-5.423-2.005-7.708C409.573,331.989,410.371,330.614,410.371,329.052z     M9.001,324.552v-60.82h392.37v60.82H9.001z M25.343,107.552c22.995-1.94,41.024-18.582,41.058-38.772    c0.106-0.262,3.392-7.005,40.314-12.939c26.553-4.268,61.492-6.618,98.38-6.618c0.031,0,0.06-0.009,0.091-0.009    c0.031,0,0.06,0.009,0.091,0.009c36.888,0,71.827,2.35,98.38,6.618c36.575,5.878,40.146,12.556,40.313,12.935    c0,0.004,0.001,0.009,0.001,0.013c0.04,20.186,18.066,36.824,41.058,38.764v76.222h-12.917v-64.358c0-2.485-2.015-4.5-4.5-4.5    c-16.714,0-36.144-12.332-36.144-28.231c0-8.905-12.554-15.615-38.379-20.512c-22.93-4.349-54.116-6.744-87.813-6.744    c-0.031,0-0.06,0.009-0.091,0.009c-0.031,0-0.06-0.009-0.091-0.009c-33.696,0-64.882,2.395-87.813,6.744    C91.457,71.07,78.903,77.78,78.903,86.685c0,15.899-19.429,28.231-36.144,28.231c-2.485,0-4.5,2.015-4.5,4.5v64.358H25.343    V107.552z M315.993,126.177h-68.792c-17.744,0-31.643,8.765-31.643,19.953v37.644h-20.744V146.13    c0-11.188-13.899-19.953-31.643-19.953H94.378c-17.744,0-31.644,8.765-31.644,19.953v37.644H47.26v-60.097    c20.028-2.023,40.644-17.174,40.644-36.992c0-0.058,1.825-6.126,31.056-11.67c22.394-4.247,52.984-6.586,86.135-6.586    c0.031,0,0.06-0.009,0.091-0.009c0.031,0.001,0.06,0.009,0.091,0.009c33.151,0,63.741,2.339,86.135,6.586    c29.231,5.544,31.056,11.612,31.056,11.67c0,19.818,20.616,34.969,40.644,36.992v60.097h-15.475V146.13    C347.637,134.942,333.737,126.177,315.993,126.177z M338.637,146.13v37.644H224.558V146.13c0-5.17,9.684-10.953,22.643-10.953    h68.792C328.953,135.177,338.637,140.96,338.637,146.13z M185.814,146.13v37.644H71.735V146.13c0-5.17,9.684-10.953,22.644-10.953    h68.792C176.13,135.177,185.814,140.96,185.814,146.13z M21.627,192.774h367.118c13.168,7.237,12.649,23.301,12.62,23.98    c-0.003,0.074-0.005,0.148-0.005,0.222v37.756H9.012v-37.756c0-0.063-0.002-0.143-0.005-0.206    C8.978,216.075,8.459,200.011,21.627,192.774z M37.182,340.504c0,2.868-4.042,6.4-5.988,7.653c-1.3,0.826-2.088,2.259-2.088,3.799    v9.193H17.079v-9.193c0-1.53-0.79-2.963-2.077-3.792c-1.958-1.261-6.002-4.793-6.002-7.661c0-3.827,3.109-6.94,6.934-6.951H30.25    C34.074,333.563,37.182,336.676,37.182,340.504z M395.381,348.156c-1.301,0.825-2.089,2.259-2.089,3.799v9.193h-12.026v-9.193    c0-1.53-0.79-2.963-2.076-3.792c-1.958-1.261-6-4.792-6-7.661c0-3.827,3.108-6.94,6.931-6.951h14.316    c3.825,0.011,6.934,3.124,6.934,6.951C401.371,343.371,397.327,346.903,395.381,348.156z" fill="#181d30"/>
		<g>
			<path d="M385.597,314.086H216.102c-2.485,0-4.5-2.015-4.5-4.5V278.7c0-2.485,2.015-4.5,4.5-4.5h169.494     c2.485,0,4.5,2.015,4.5,4.5v30.886C390.097,312.071,388.082,314.086,385.597,314.086z M220.602,305.086h160.494V283.2H220.602     V305.086z" fill="#181d30"/>
		</g>
	</g>
</g>
<g>
</g>
<g>
</g>
<g>
</g>
<g>
</g>
<g>
</g>
<g>
</g>
<g>
</g>
<g>
</g>
<g>
</g>
<g>
</g>
<g>
</g>
<g>
</g>
<g>
</g>
<g>
</g>
<g>
</g>
</svg>
