<?xml version="1.0" encoding="iso-8859-1"?>
<!-- Generator: Adobe Illustrator 17.1.0, SVG Export Plug-In . SVG Version: 6.00 Build 0)  -->
<!DOCTYPE svg PUBLIC "-//W3C//DTD SVG 1.1//EN" "http://www.w3.org/Graphics/SVG/1.1/DTD/svg11.dtd">
<svg xmlns="http://www.w3.org/2000/svg" xmlns:xlink="http://www.w3.org/1999/xlink" version="1.1" id="Capa_1" x="0px" y="0px" viewBox="0 0 490.02 490.02" style="enable-background:new 0 0 490.02 490.02;" xml:space="preserve" width="512px" height="512px">
<g>
	<path d="M112.194,3.465H18.832C8.448,3.465,0,11.912,0,22.295v445.43c0,10.383,8.448,18.83,18.832,18.83h93.362   c10.383,0,18.83-8.447,18.83-18.83c0-111.357,0-445.43,0-445.43C131.024,11.912,122.577,3.465,112.194,3.465z M112.194,472.555   H18.832c-2.664,0-4.832-2.167-4.832-4.83V22.295c0-2.663,2.168-4.83,4.832-4.83h93.362c2.663,0,4.83,2.167,4.83,4.83v93.236H53.445   c-3.866,0-7,3.134-7,7s3.134,7,7,7h63.579v24.676H82.041c-3.866,0-7,3.134-7,7c0,3.866,3.134,7,7,7h34.983v24.679H53.445   c-3.866,0-7,3.134-7,7c0,3.866,3.134,7,7,7h63.579v24.678H82.041c-3.866,0-7,3.134-7,7c0,3.866,3.134,7,7,7h34.983v24.677H53.445   c-3.866,0-7,3.134-7,7c0,3.866,3.134,7,7,7h63.579v24.678H82.041c-3.866,0-7,3.134-7,7c0,3.866,3.134,7,7,7h34.983v24.677H53.445   c-3.866,0-7,3.134-7,7c0,3.866,3.134,7,7,7h63.579v24.678H82.017c-3.866,0-7,3.134-7,7c0,3.866,3.134,7,7,7h35.008v24.678H53.457   c-3.866,0-7,3.134-7,7c0,3.866,3.134,7,7,7h63.567v28.772C117.024,470.388,114.857,472.555,112.194,472.555z" fill="#181d30"/>
	<path d="M65.514,83.82c13.222,0,23.979-10.758,23.979-23.98c0-13.223-10.757-23.979-23.979-23.979   c-13.223,0-23.98,10.757-23.98,23.979C41.534,73.063,52.291,83.82,65.514,83.82z M65.514,49.861c5.502,0,9.979,4.476,9.979,9.979   c0,5.503-4.477,9.98-9.979,9.98c-5.503,0-9.98-4.477-9.98-9.98C55.534,54.338,60.011,49.861,65.514,49.861z" fill="#181d30"/>
	<path d="M255.514,408.944c21.818,0,87.271,0,87.271,0c0.007,0,0.015,0.001,0.02,0c3.866,0,7-3.134,7-7   c0-1.658-0.623-3.144-1.539-4.38c-22.707-30.64-64.47-94.537-87.002-125.306c-1.838-2.51-4.921-3.602-7.842-2.688   c-2.92,0.915-4.908,3.62-4.908,6.68c0,0,0,94.271,0,125.694C248.514,405.81,251.648,408.944,255.514,408.944z M262.514,298.606   l66.89,96.338h-66.89V298.606z" fill="#181d30"/>
	<path d="M488.538,475.19C405.465,360.885,172.474,6.608,172.474,6.608c-1.721-2.551-4.906-3.68-7.85-2.78   c-2.943,0.9-4.953,3.617-4.953,6.694c0,0,0,351.731,0,468.976c0,3.866,3.134,7,7,7H483c0.007,0,0.015,0,0.02,0c3.866,0,7-3.134,7-7   C490.02,477.873,489.425,476.41,488.538,475.19z M173.671,472.498v-33.686h31.465c3.866,0,7-3.134,7-7c0-3.866-3.134-7-7-7h-31.465   v-17.669h14.64c3.866,0,7-3.134,7-7s-3.134-7-7-7h-14.64v-17.668h31.465c3.866,0,7-3.134,7-7c0-3.866-3.134-7-7-7h-31.465v-17.67   h14.64c3.866,0,7-3.134,7-7s-3.134-7-7-7h-14.64v-17.669h31.465c3.866,0,7-3.134,7-7c0-3.866-3.134-7-7-7h-31.465v-17.669h14.64   c3.866,0,7-3.134,7-7c0-3.866-3.134-7-7-7h-14.64v-17.669h31.465c3.866,0,7-3.134,7-7s-3.134-7-7-7h-31.465v-17.67h14.64   c3.866,0,7-3.134,7-7c0-3.866-3.134-7-7-7h-14.64v-17.67h31.465c3.866,0,7-3.134,7-7c0-3.866-3.134-7-7-7h-31.465V153.79h14.64   c3.866,0,7-3.134,7-7c0-3.866-3.134-7-7-7h-14.64v-17.67h31.465c3.866,0,7-3.134,7-7c0-3.866-3.134-7-7-7h-31.465V33.419   l296.164,439.08H173.671z" fill="#181d30"/>
</g>
<g>
</g>
<g>
</g>
<g>
</g>
<g>
</g>
<g>
</g>
<g>
</g>
<g>
</g>
<g>
</g>
<g>
</g>
<g>
</g>
<g>
</g>
<g>
</g>
<g>
</g>
<g>
</g>
<g>
</g>
</svg>
